<svg id="Layer_5" enable-background="new 0 0 64 64" height="512" viewBox="0 0 64 64" width="512" xmlns="http://www.w3.org/2000/svg"><path d="m60 9h-56c-1.654 0-3 1.346-3 3v40c0 1.654 1.346 3 3 3h56c1.654 0 3-1.346 3-3v-40c0-1.654-1.346-3-3-3zm-56 2h56c.551 0 1 .448 1 1v5h-58v-5c0-.552.449-1 1-1zm56 42h-56c-.551 0-1-.448-1-1v-33h58v33c0 .552-.449 1-1 1z"/><path d="m5 13h2v2h-2z"/><path d="m13 13h2v2h-2z"/><path d="m9 13h2v2h-2z"/><path d="m57 33h-7v-2.101c2.279-.465 4-2.484 4-4.899 0-2.757-2.243-5-5-5-2.414 0-4.434 1.721-4.899 4h-19.101v-2c0-1.103-.897-2-2-2h-16c-1.103 0-2 .897-2 2v6c0 1.103.897 2 2 2h7v8h25v2c0 1.103.897 2 2 2h7v2h-23v-2c0-1.103-.897-2-2-2h-16c-1.103 0-2 .897-2 2v6c0 1.103.897 2 2 2h16c1.103 0 2-.897 2-2v-2h25v-4h7c1.103 0 2-.897 2-2v-6c0-1.103-.897-2-2-2zm-50 16v-6h16l.001 6zm42-26c1.654 0 3 1.346 3 3s-1.346 3-3 3-3-1.346-3-3 1.346-3 3-3zm-42 0h16l.001 6h-16.001zm32 12v2h-23v-6h7c1.103 0 2-.897 2-2v-2h19.101c.399 1.956 1.943 3.5 3.899 3.899v2.101h-7c-1.103 0-2 .897-2 2zm2 6v-6h16l.001 6z"/><path d="m9 25h2v2h-2z"/><path d="m13 25h8v2h-8z"/><path d="m9 45h12v2h-12z"/><path d="m53 37h2v2h-2z"/><path d="m43 37h8v2h-8z"/></svg>