<?xml version="1.0" encoding="UTF-8" standalone="no"?>
<svg
   xmlns:dc="http://purl.org/dc/elements/1.1/"
   xmlns:cc="http://creativecommons.org/ns#"
   xmlns:rdf="http://www.w3.org/1999/02/22-rdf-syntax-ns#"
   xmlns:svg="http://www.w3.org/2000/svg"
   xmlns="http://www.w3.org/2000/svg"
   xml:space="preserve"
   style="enable-background:new 0 0 297.161 297.161;"
   viewBox="0 0 297.161 297.161"
   y="0px"
   x="0px"
   id="Layer_1"
   version="1.1"><metadata
   id="metadata39"><rdf:RDF><cc:Work
       rdf:about=""><dc:format>image/svg+xml</dc:format><dc:type
         rdf:resource="http://purl.org/dc/dcmitype/StillImage" /></cc:Work></rdf:RDF></metadata><defs
   id="defs37" />
<g
   id="XMLID_4_">
	<path
   d="M268.595,127.69c0-2.75-2.151-5.66-4.78-6.467L122.483,77.936c-2.63-0.805-3.838,0.58-2.684,3.076   l26.297,57.1c1.151,2.496,4.144,5.467,6.649,6.6l36.055,16.332c2.506,1.131,2.566,3.105,0.133,4.387L35.085,246.372   c-2.434,1.281-2.747,0.828-0.695-1.002l59.108-52.648c2.053-1.83,3.732-5.576,3.732-8.326l0.042-159.609   c-0.002-2.75-2.154-5.662-4.783-6.469L33.341,0.208c-2.63-0.803-4.782,0.791-4.782,3.541v242.139c0,2.75,1.843,6.291,4.095,7.869   L92.76,295.88c2.252,1.578,6.027,1.719,8.39,0.311l163.156-97.199c2.362-1.408,4.296-4.809,4.296-7.559L268.595,127.69z"
   id="XMLID_6_" />
</g>
<g
   id="g4">
</g>
<g
   id="g6">
</g>
<g
   id="g8">
</g>
<g
   id="g10">
</g>
<g
   id="g12">
</g>
<g
   id="g14">
</g>
<g
   id="g16">
</g>
<g
   id="g18">
</g>
<g
   id="g20">
</g>
<g
   id="g22">
</g>
<g
   id="g24">
</g>
<g
   id="g26">
</g>
<g
   id="g28">
</g>
<g
   id="g30">
</g>
<g
   id="g32">
</g>
</svg>